<?xml version="1.0" encoding="UTF-8"?>
<svg width="82px" height="154px" viewBox="0 0 82 154" version="1.1" xmlns="http://www.w3.org/2000/svg" xmlns:xlink="http://www.w3.org/1999/xlink">
    <!-- Generator: Sketch 43.1 (39012) - http://www.bohemiancoding.com/sketch -->
    <title>Emoji_u1f525</title>
    <desc>Created with Sketch.</desc>
    <defs></defs>
    <g id="Page-1" stroke="none" stroke-width="1" fill="none" fill-rule="evenodd">
        <g id="Emoji_u1f525">
            <path d="M75.59,51.16 C71.36,52.08 67.71,54.44 66,58.51 C64.97,60.98 63.53,67.36 59.58,65.71 C57.69,64.93 57.72,62.22 57.94,60.53 C58.41,57.06 59.97,53.89 61.04,50.59 C62.14,47.17 63.09,43.73 63.77,40.19 C66.05,28.47 65.42,14.97 57.13,5.6 C55.73,4 52.2,0.3 49.87,0.22 C48.43,0.18 49.85,1.88 50.25,2.45 C51.06,3.62 51.74,4.89 52.26,6.22 C58.39,21.86 43.28,33.77 33.35,43.04 C28.59,47.49 24.79,52.21 21.37,57.72 C21.03,58.25 20.28,60.03 19.31,59.66 C18.16,59.22 18.04,56.59 17.68,55.61 C17,53.73 15.95,51.68 14.6,50.21 C11.99,47.35 8.34,45.42 4.39,45.68 C4.24,45.69 3.81,45.76 3.28,45.88 C2.45,46.06 0.23,46.35 0.83,47.69 C1.14,48.38 2.05,48.32 2.7,48.51 C11.04,51.07 10.85,59.81 9.5,66.83 C7.06,79.61 0.3,91.69 5.1,104.83 C10.76,120.32 28.48,129.99 44.56,127.33 C48.95,126.61 54.01,125.19 57.95,123.07 C62.14,120.81 66.73,117.72 70,114.24 C74.21,109.77 76.89,104.04 77.68,97.97 C78.61,90.95 76.37,84.33 74.33,77.7 C71.87,69.7 69.04,56.64 79.26,52.73 C79.76,52.53 80.76,52.38 81.11,51.85 C82.41,49.91 76.17,51.04 75.59,51.16 Z" id="Shape" fill="#3AB982" fill-rule="nonzero"></path>
            <path d="M45.13,106.07 C47.25,107.85 50.22,106.98 52.22,105.46 C53.29,104.65 54.21,103.61 54.81,102.4 C55.06,101.88 55.35,101.22 55.35,100.63 C55.35,99.84 54.88,99.06 55.08,98.25 C56.76,97.92 58.84,102.75 59.05,103.87 C60.73,112.7 52.41,119.98 44.38,121.39 C30.83,123.76 23.04,111.89 24.6,101.35 C25.57,94.79 29.97,90.28 34.45,85.78 C38.16,82.05 41.6,78.85 42.8,74 C43.01,73.14 42.96,71.82 42.71,70.97 C42.5,70.24 42.1,69.57 42.08,68.78 C42.02,67.12 43.63,69.29 44,69.71 C48.46,74.74 49.73,82.17 48.54,88.67 C47.77,92.87 44.77,95.87 43.72,99.89 C43.11,102.18 43.17,104.41 45.13,106.07 Z" id="Shape" fill="#34495F" fill-rule="nonzero"></path>
            <text id="nuxtwp" font-family="Roboto-Light, Roboto" font-size="25" font-weight="300" letter-spacing="-0.6029409" fill="#FFFFFF">
                <tspan x="3" y="148">nuxt</tspan>
                <tspan x="48.2444864" y="148" font-family="Roboto-Bold, Roboto" font-weight="bold">wp</tspan>
            </text>
        </g>
    </g>
</svg>